<?xml version="1.0" encoding="UTF-8" standalone="no"?><svg xmlns="http://www.w3.org/2000/svg" xmlns:xlink="http://www.w3.org/1999/xlink" fill="#000000" height="272.1" preserveAspectRatio="xMidYMid meet" version="1" viewBox="-0.4 -0.0 258.4 272.1" width="258.4" zoomAndPan="magnify"><g id="change1_1"><path d="M167.62,74.68c-7.5,3.08-19.34,5.18-27.48,5.68c-2.66,0.16-0.5-1.36,1.26-3.1c1.32-1.3,8.18-5.08,9.78-6 c6-3.44,7.68-4.96,14.02-7.7L167.62,74.68z M122.6,81.64c-2.5,0.26-4.9,0.94-7.24,1.78c-2.28,0.82-4.72,1.72-6.68,3.18 c-0.66,0.5-1.16,0.98-1.38,1.8c-0.2,0.72-0.12,1.68,0.3,2.32c0.8,1.24,2.76,2.08,4.1,1.08c0.76-0.58,1.62-1.02,2.48-1.44 c0.24-0.12,0.5-0.22,0.74-0.34c0.08-0.04,0.18-0.08,0.26-0.12c-0.16,0.06-0.26,0.1,0.02-0.02c0.06-0.02,0.12-0.06,0.18-0.08 c-0.04,0.04-0.1,0.06-0.16,0.08c0.58-0.24,1.14-0.46,1.72-0.66c1.1-0.4,2.22-0.76,3.36-1.06c0.52-0.14,1.04-0.28,1.56-0.38 c0.22-0.04,0.44-0.08,0.66-0.12c-0.14,0.02-0.22,0.02,0.06-0.02c0.82-0.1,1.52-0.28,2.12-0.88c0.52-0.52,0.92-1.38,0.88-2.12 C125.52,83.18,124.26,81.46,122.6,81.64z M122.56,87.66c0.02,0,0.1-0.02,0.16-0.02c-0.06,0-0.14,0.02-0.18,0.02 C122.54,87.66,122.54,87.66,122.56,87.66z M122.92,87.6c-0.02,0.02-0.1,0.02-0.18,0.04C122.8,87.64,122.88,87.62,122.92,87.6z M85.54,96.28c4.96,0.78,9.96,0.64,14.86-0.58c1.52-0.38,2.58-2.18,2.1-3.7c-0.52-1.58-2.06-2.5-3.7-2.1 c-1.06,0.26-2.14,0.48-3.22,0.64c-0.02,0.02-0.04,0.02-0.06,0.02c-0.04,0.02-0.08,0.02-0.14,0.02c-0.26,0.02-0.5,0.06-0.76,0.08 c-0.54,0.06-1.1,0.1-1.64,0.12c-1.06,0.04-2.1,0.04-3.16-0.02c-0.52-0.04-1.02-0.08-1.52-0.12c-0.26-0.02-0.5-0.06-0.76-0.08 c-0.14-0.02-0.3-0.04-0.44-0.06c-0.84-0.14-1.58-0.14-2.32,0.3c-0.62,0.38-1.22,1.08-1.38,1.8C83.06,94.04,83.84,96.04,85.54,96.28z M62.74,99.92c0.44-0.46,0.9-0.9,1.38-1.3c0.02-0.02,0.04-0.04,0.08-0.08c0.06-0.06,0.16-0.12,0.2-0.14 c0.24-0.18,0.48-0.34,0.74-0.5c0.54-0.34,1.08-0.66,1.66-0.94c0.06-0.02,0.36-0.2,0.58-0.3c-0.08,0.04-0.08,0.04,0.14-0.04 c0.18-0.06,0.34-0.14,0.52-0.2c0.56-0.2,1.14-0.38,1.72-0.52c0.3-0.08,0.58-0.14,0.88-0.2c0.14-0.02,0.3-0.06,0.44-0.08 c0.02,0.01,0.05,0.01,0.08,0.01c0.2,0.02,0.66-0.09,0.8-0.09c0.3-0.02,0.6-0.02,0.9-0.04c0.68,0,1.34,0.04,2.02,0.1 c1.56,0.18,3.06-1.5,3-3c-0.08-1.78-1.32-2.82-3-3c-5.98-0.66-12.22,1.74-16.36,6.06c-1.08,1.14-1.22,3.14,0,4.24 C59.68,101,61.58,101.12,62.74,99.92z M30.96,145.44c1.7,0,2.92-1.38,3-3c0.06-1.08,0.06-2.18,0.14-3.28 c0.06-0.8,0.16-1.58,0.22-2.36c0.02-0.22,0.06-0.46,0.1-0.68c0.08-0.48,0.18-0.96,0.28-1.44c0.18-0.92,0.42-1.84,0.72-2.74 c0.16-0.52,0.34-1.04,0.54-1.54c0.02-0.1,0.04-0.14,0.06-0.18c0.02-0.04,0.02-0.08,0.06-0.14c0.12-0.26,0.24-0.5,0.36-0.76 c0.48-0.94,1.02-1.86,1.62-2.74c0,0,0.28-0.4,0.32-0.46c0.16-0.2,0.32-0.4,0.5-0.6c0.42-0.48,0.84-0.92,1.3-1.36 c1.16-1.12,1.12-3.12,0-4.24c-1.16-1.16-3.06-1.12-4.24,0c-3.6,3.46-5.92,8.06-7,12.92c-0.7,3.18-0.84,6.36-1,9.6 C27.86,144.06,29.36,145.44,30.96,145.44z M36.86,170.42c1.36-0.88,1.94-2.66,1.08-4.1c-0.18-0.3-0.32-0.62-0.48-0.94 c-0.08-0.18-0.16-0.34-0.24-0.52c-0.2-0.52-0.4-1.04-0.58-1.56c-0.42-1.3-0.76-2.66-1-4.02c-0.04-0.22-0.06-0.42-0.1-0.62 c0,0,0,0,0-0.02v-0.02c-0.04-0.44-0.08-0.88-0.12-1.32c-0.08-0.94-0.08-1.88-0.06-2.82c0.04-1.56-1.42-3.08-3-3 c-1.66,0.08-2.94,1.32-3,3c-0.1,3.5,0.4,7.08,1.5,10.42c0.5,1.52,1.08,3.08,1.9,4.46C33.56,170.72,35.5,171.32,36.86,170.42z M38.28,176.76c-1.44,0.92-1.82,2.6-1.08,4.1c2.14,4.3,4.46,8.76,8.24,11.86c0.64,0.52,1.28,0.88,2.12,0.88 c0.74,0,1.62-0.32,2.12-0.88c1-1.1,1.3-3.18,0-4.24c-0.86-0.72-1.66-1.5-2.38-2.34c-0.16-0.18-0.32-0.38-0.48-0.58 c-0.06-0.08-0.14-0.18-0.2-0.26c-0.36-0.48-0.68-0.96-1-1.46c-1.22-1.92-2.24-3.96-3.26-6C41.66,176.44,39.54,175.94,38.28,176.76z M71.56,208.1c-1.24-0.72-2.46-1.48-3.66-2.28c-0.62-0.42-1.22-0.84-1.82-1.26c-0.3-0.22-0.6-0.44-0.9-0.66 c-0.1-0.08-0.18-0.14-0.28-0.22c-0.04-0.04-0.1-0.08-0.18-0.14c-2.28-1.8-4.44-3.76-6.46-5.86c-1.08-1.14-3.16-1.18-4.24,0 c-1.12,1.22-1.16,3.04,0,4.24c4.26,4.44,9.16,8.28,14.48,11.36c1.36,0.78,3.34,0.36,4.1-1.08C73.4,210.78,73.02,208.94,71.56,208.1z M96.46,216.4c-2.14,1.02-5,0.98-7.54,0.3c-2.92-0.8-5.34-2.18-8.1-3.82c-1.34-0.8-3.34-0.34-4.1,1.08 c-0.76,1.44-0.36,3.24,1.08,4.1c3.18,1.9,6.54,3.74,10.16,4.58c3.9,0.92,7.88,0.68,11.52-1.06c1.42-0.68,1.9-2.82,1.08-4.1 C99.62,216.02,97.98,215.68,96.46,216.4z M112.08,198.28c-0.66-0.38-1.6-0.54-2.32-0.3c-1.64,0.54-2.36,2-2.1,3.62 c0-0.12-0.02-0.24-0.04-0.36c0.04,0.38,0,0.74-0.02,1.12c-0.06,0.28-0.12,0.56-0.2,0.84c-0.04,0.14-0.12,0.3-0.16,0.46 c0,0.02-0.02,0.04-0.02,0.06c-0.36,0.76-0.82,1.5-1.28,2.2c-0.92,1.38-1.9,2.72-2.56,4.26c-0.32,0.78-0.54,1.48-0.3,2.32 c0.2,0.7,0.74,1.46,1.38,1.8c0.7,0.36,1.54,0.54,2.32,0.3c0.7-0.22,1.5-0.68,1.8-1.38c0.82-1.94,2.2-3.56,3.26-5.36 c0.62-1.06,1.16-2.22,1.48-3.4c0.4-1.46,0.42-2.88,0.16-4.36C113.36,199.4,112.7,198.66,112.08,198.28z M107.24,191.84 c0.76,1.38,2.76,1.94,4.1,1.08c1.4-0.9,1.9-2.64,1.08-4.1c-2.02-3.62-4.76-6.88-8.02-9.44c-0.66-0.52-1.26-0.88-2.12-0.88 c-0.74,0-1.62,0.32-2.12,0.88c-0.52,0.58-0.92,1.32-0.88,2.12c0.04,0.74,0.26,1.64,0.88,2.12c1.84,1.44,3.48,3.1,4.92,4.92 C105.86,189.6,106.58,190.7,107.24,191.84z M83.7,180.46c0.02,0,0.02,0,0.04,0c-0.08,0.04-0.14,0.06-0.22,0.1 c0.14-0.04,0.26-0.06,0.4-0.1c1.16-0.1,2.36-0.06,3.5-0.02c1.38,0.04,2.74,0.16,4.1,0.32c0.72,0.08,1.64-0.4,2.12-0.88 c0.52-0.52,0.92-1.38,0.88-2.12c-0.04-0.78-0.28-1.58-0.88-2.12c-0.62-0.58-1.28-0.78-2.12-0.88c-1.64-0.18-3.26-0.3-4.92-0.34 c-1.94-0.04-3.94-0.12-5.7,0.78c-1.4,0.72-1.92,2.8-1.08,4.1C80.72,180.64,82.28,181.06,83.7,180.46z M73.28,180.42 c-0.74-0.16-1.7-0.18-2.32,0.3c-3.1,2.36-6,4.9-8.64,7.76c-0.54,0.58-0.88,1.32-0.88,2.12c0,0.74,0.32,1.62,0.88,2.12 c1.16,1.06,3.1,1.22,4.24,0c2.36-2.54,4.94-4.9,7.68-7.02c-0.08,0.06-0.14,0.1-0.22,0.16c0.64-0.48,1.12-0.96,1.34-1.76 c0.2-0.72,0.12-1.68-0.3-2.32S74.04,180.58,73.28,180.42z M53.9,209.66c-0.7-0.36-1.54-0.54-2.32-0.3c-0.24,0.1-0.48,0.2-0.72,0.3 c-0.46,0.28-0.82,0.62-1.08,1.08c-1.66,2.18-2.86,4.76-3.52,7.42c-0.2,0.78-0.1,1.64,0.3,2.32c0.38,0.62,1.08,1.22,1.8,1.38 c0.78,0.18,1.64,0.14,2.32-0.3c0.64-0.42,1.18-1.04,1.38-1.8c0.2-0.82,0.48-1.62,0.8-2.4c0.58-1.26,1.28-2.46,2.12-3.58 c0.44-0.58,0.48-1.66,0.3-2.32C55.1,210.76,54.56,210.02,53.9,209.66z M44.68,228.36c-1.56-0.36-3.28,0.46-3.7,2.1 c-0.24,1-0.54,1.98-0.9,2.94c-0.08,0.24-0.18,0.48-0.28,0.72c0,0.02,0,0.02-0.02,0.04c-0.02,0.04-0.04,0.08-0.06,0.14 c-0.22,0.5-0.46,0.98-0.7,1.48c-0.48,0.92-1,1.8-1.56,2.64c-0.28,0.42-0.58,0.82-0.86,1.22c-0.04,0.06-0.1,0.12-0.14,0.18 c-0.18,0.22-0.36,0.44-0.56,0.66c-1.02,1.18-1.26,3.08,0,4.24c1.12,1.04,3.16,1.28,4.24,0c3.14-3.66,5.46-7.96,6.62-12.66 C47.14,230.52,46.28,228.72,44.68,228.36z M30.82,249.62c-1.44-0.76-3.24-0.36-4.1,1.08c-0.46,0.74-0.96,1.46-1.48,2.16 c-1.22,1.52-2.6,2.9-4.12,4.12c-0.2,0.14-0.4,0.3-0.6,0.44c-0.66,0.46-1.16,1.02-1.38,1.8c-0.2,0.72-0.12,1.68,0.3,2.32 s1.04,1.2,1.8,1.38c0.76,0.18,1.66,0.16,2.32-0.3c3.38-2.36,6.22-5.34,8.34-8.88C32.7,252.38,32.24,250.38,30.82,249.62z M11.64,263.14c-0.84-0.18-1.56-0.06-2.32,0.3c-0.48,0.22-0.94,0.44-1.42,0.64c-1.84,0.76-3.74,1.38-5.68,1.84 c-1.54,0.38-2.58,2.2-2.1,3.7c0.52,1.6,2.06,2.5,3.7,2.1c2.96-0.7,5.8-1.76,8.54-3.08c0.64-0.32,1.2-1.12,1.38-1.8 c0.2-0.72,0.12-1.68-0.3-2.32S12.42,263.3,11.64,263.14z M44.46,116.2c1.66,0.38,3.18-0.5,3.7-2.1c0.06-0.16,0.12-0.32,0.18-0.48 c0.34-0.76,0.76-1.48,1.26-2.16c0.5-0.62,1.06-1.18,1.68-1.68c0.68-0.5,1.38-0.92,2.14-1.26c0.64-0.3,1.2-1.14,1.38-1.8 c0.2-0.72,0.12-1.68-0.3-2.32s-1.04-1.2-1.8-1.38c-0.26-0.02-0.54-0.06-0.8-0.1c-0.54,0-1.06,0.12-1.52,0.4 c-3.82,1.74-6.72,5.24-8.02,9.18C41.88,113.98,42.94,115.84,44.46,116.2z" fill="#ffffff"/></g><g id="change2_1"><path d="M256.56,54.74c-1.36-7.62-6.74-13.6-13.36-17.26c-6.78-3.74-14.56-5.44-22.26-6.1c0.72-3.2,1.44-6.42,2.18-9.62 c0.78-3.44,1.82-6.94,2.06-10.48C225.6,5.06,221.32,0,214.96,0c-6.08-0.02-10.8,4.82-13.2,10c-1.4,3.02-2.22,6.26-2.44,9.54 c-1.58-1.14-3.3-2.12-5.1-2.9c-4.86-2.08-11.18-2.8-15.28,1.24c-4.1,4.02-3.92,10.32-1.62,15.2c0.76,1.62,1.78,3.34,2.96,4.88 c-0.12,0.16-0.24,0.34-0.36,0.5c-8.8,5.7-15.26,14.72-15.44,25.18c-0.08,4.02,2.3,11.14,2.3,11.14c2.8,5.94,7.96,10.12,14.12,12.94 c2.2,1,4.44,1.94,6.72,2.78c0.28,0.14,0.56,0.24,0.82,0.3c6.22,2.24,12.66,3.82,19.26,4.42c16.02,1.48,32.9-3.96,42.76-17.2 C255.36,71.44,258.02,62.92,256.56,54.74z M206.42,28.14c-1.56-4.62-1.58-9.54,0.14-14.18c1.3-3.5,4.2-8,8.4-7.98 c5,0.02,4.42,5.06,3.64,8.58c-1.22,5.5-2.48,10.98-3.72,16.48c-3.3-0.06-6.58,0.06-9.86,0.4C206.14,30.8,206.9,29.58,206.42,28.14z M173.8,75.2c-4.12-5.84-4.36-14-1.3-20.36c1.12-2.32,2.6-4.4,4.32-6.26c-0.8,5.38-0.42,10.9,0.16,16.3 c0.56,5.24,1.12,10.8,3.6,15.54c0.14,0.28,0.3,0.58,0.46,0.86C178.18,79.68,175.6,77.74,173.8,75.2z M185.56,21.02 c6.12-1.02,12.88,4.3,15.38,9.46c0.34,0.7,0.88,1.12,1.48,1.32c-4.36,0.6-8.68,1.52-12.9,2.78c-0.56-0.26-1.24-0.3-2.02,0 c-0.38,0.14-0.74,0.32-1.12,0.48c-0.22-0.02-0.44-0.02-0.66,0.02c-0.18-0.24-0.38-0.46-0.56-0.7c-0.58-0.78-1.14-1.58-1.64-2.4 c-0.9-1.5-1.66-3.12-1.84-4.88C181.4,24.34,182.6,21.52,185.56,21.02z M193.34,86.14c-0.84-0.26-1.7-0.54-2.58-0.82 c-1.9-2.08-3.34-4.88-4.66-7.32c-2.16-3.96-2.64-8.7-3.12-13.12c-0.5-4.66-1.02-9.62-0.42-14.28c0.28-2.14,0.68-5.8,1.72-7.9 c0.5-0.28,1.02-0.56,1.52-0.82c0.4,0.04,0.82,0,1.3-0.18c3.08-1.1,6.28-2.02,9.52-2.76c-4,6.66-3.58,16.04-3.24,23.38 c0.44,9.18,3.14,18.06,7.86,25.88C198.58,87.66,195.94,86.96,193.34,86.14z M216.8,89.34c-2.56,0.18-5.12,0.14-7.64-0.04 c-5.62-7.62-9.14-16.6-9.72-26.08c-0.28-4.46-0.32-9.06,0.14-13.52c0.4-4,1.5-7.86,4.68-10.54c0.62-0.52,0.9-1.12,0.98-1.7 c6.2-0.72,12.46-0.7,18.6,0.18c-5.2,5.84-4.54,16.54-2.18,23.26c3.14,8.88,10.04,15.84,18.7,19.18 C233.84,85.6,225.3,88.78,216.8,89.34z M248.48,69.78c-0.96,1.98-2.14,3.8-3.48,5.5c-7.78-2.16-14.4-7.7-17.34-15.32 c-2.22-5.74-3.86-17.08,3.34-20.14c0.28-0.12,0.5-0.3,0.7-0.5c0.28,0.08,0.58,0.14,0.86,0.24c5.78,1.7,11.86,4.62,15.4,9.74 C252.16,55.36,251.62,63.34,248.48,69.78z" fill="#f8ffe5"/></g></svg>